<svg width="106" height="94" viewBox="0 0 106 94" fill="none" xmlns="http://www.w3.org/2000/svg">
<path fill-rule="evenodd" clip-rule="evenodd" d="M23 0L43.7846 6.75H2.21539L23 0ZM5 7V38C5 40.7614 7.23859 43 10 43H36C38.7614 43 41 40.7614 41 38V35H48V86H4C1.79086 86 0 87.7909 0 90C0 92.2091 1.79086 94 4 94H102C104.209 94 106 92.2091 106 90C106 87.7909 104.209 86 102 86H56V62H88C90.2091 62 92 60.2091 92 58C92 55.7909 90.2091 54 88 54H56V5C56 2.79086 54.2091 1 52 1C49.7909 1 48 2.79086 48 5V27H41V7H5ZM22.5 36C28.8513 36 34 30.8513 34 24.5C34 18.1487 28.8513 13 22.5 13C16.1487 13 11 18.1487 11 24.5C11 30.8513 16.1487 36 22.5 36Z" fill="black"/>
</svg>
