<svg width="95" height="95" viewBox="0 0 95 95" fill="none" xmlns="http://www.w3.org/2000/svg">
<path fill-rule="evenodd" clip-rule="evenodd" d="M48.0759 32.725C46.8025 33.785 46.6296 35.6766 47.6896 36.95C48.65 38.1037 50.2929 38.3541 51.5403 37.6027C49.1874 39.8298 46.7826 42.1685 44.3529 44.5982C30.7757 58.1754 20.0383 70.9768 15.7562 78.2745L8.74514 85.2855C7.57357 86.4571 7.57357 88.3566 8.74514 89.5282C9.91672 90.6998 11.8162 90.6997 12.9878 89.5282L19.9989 82.5171C27.2965 78.235 40.0979 67.4976 53.6751 53.9204C67.2523 40.3432 77.9897 27.5418 82.2718 20.2442L89.5282 12.9878C90.6998 11.8162 90.6998 9.91671 89.5282 8.74514C88.3566 7.57357 86.4571 7.57357 85.2855 8.74514L78.0291 16.0015C77.5082 16.3072 76.9592 16.6458 76.3838 17.016L76.1496 16.7817C76.6167 15.7645 76.4931 14.5259 75.7292 13.6082C74.6691 12.3348 72.7775 12.1619 71.5042 13.2219L48.0759 32.725Z" fill="#FFD700"/>
</svg>
