<svg width="105" height="127" viewBox="0 0 105 127" fill="none" xmlns="http://www.w3.org/2000/svg">
<path d="M20.1613 0.625717C19.0343 0.924034 18.0068 1.28865 17.8742 1.42123C17.7416 1.55382 17.4101 1.65326 17.145 1.65326C16.2169 1.65326 12.2393 3.77464 9.88587 5.49827C4.44983 9.54215 1.36719 15.2102 0.273357 23.3311C-0.754187 31.0543 1.16831 39.9376 5.14591 45.8708C5.7094 46.6663 6.1403 47.4287 6.1403 47.5281C6.1403 47.727 6.80324 48.6551 10.5157 53.6603L11.6095 55.1187L11.7752 69.5706C11.941 83.3596 11.9741 84.0557 12.6039 84.9175C14.0955 86.9726 17.5759 86.9394 18.968 84.8843C19.6973 83.7905 19.7304 83.5585 19.7304 75.073C19.7304 64.4329 19.7636 64.3335 22.4153 66.8526L24.2052 68.5431L24.2715 91.3148C24.3378 114.451 24.3709 115.015 25.5311 115.015C26.7243 115.015 26.7575 114.451 26.7243 93.8671C26.7243 82.7298 26.8238 73.3493 26.9232 72.9516C27.1221 72.1229 28.1828 72.0235 28.4811 72.7858C28.5805 73.0842 28.68 80.1112 28.68 88.3979C28.68 99.0379 28.7794 103.877 29.0777 104.805C30.039 108.054 33.884 108.319 35.1767 105.203C35.5413 104.341 35.6408 101.657 35.6408 92.3423C35.6408 84.9175 35.7734 80.509 35.9722 80.3764C36.138 80.277 36.5026 80.3101 36.7678 80.4427C37.1324 80.6416 41.11 84.2214 44.2589 87.1715C47.3084 90.0221 51.2197 93.4693 51.982 93.9665L52.877 94.53L54.5343 93.0053C55.4293 92.1766 56.3905 91.4805 56.6226 91.4805C56.8877 91.4805 57.1861 91.9446 57.3186 92.5081C57.4181 93.0716 57.5175 100.894 57.5175 109.877C57.5175 123.732 57.5838 126.251 58.0147 126.616C58.7439 127.213 59.6058 126.881 59.8709 125.854C60.0035 125.323 60.1361 116.639 60.1361 106.562C60.1361 87.6687 60.2024 86.6743 61.4288 86.9063C61.926 87.0057 61.9923 88.0996 62.158 98.9716C62.2906 108.452 62.4232 111.037 62.7878 111.468C63.4508 112.263 65.6716 112.23 66.1025 111.402C66.3345 111.004 66.4671 105.601 66.4671 96.784C66.5002 82.1663 66.5665 81.404 67.9587 80.6416C69.2514 79.9124 84.9629 64.6318 89.1725 59.9913C98.1884 50.0804 102.961 42.3573 104.453 35.1645C105.182 31.7172 105.182 23.5632 104.453 20.1491C103.392 15.1108 100.807 10.4371 97.194 7.0893C95.172 5.19994 91.3602 2.64766 90.5315 2.64766C90.3326 2.64766 90.0012 2.51508 89.8023 2.38248C89.3714 1.98473 86.8854 1.12292 84.4325 0.526275C81.6482 -0.1698 75.0521 -0.1698 72.3009 0.493133C66.2351 2.05102 60.9648 4.80218 55.8602 9.14439C54.2692 10.5034 52.8107 11.5972 52.5787 11.5972C52.3798 11.5972 50.8882 10.5034 49.2972 9.17754C46.546 6.85728 43.5297 4.63645 43.1319 4.63645C43.0325 4.63645 42.2369 4.20555 41.3751 3.6752C39.4195 2.51508 35.8728 1.18921 32.8896 0.493133C29.8733 -0.1698 22.9456 -0.103509 20.1613 0.625717ZM32.9227 11.3652C35.243 12.1939 38.4914 13.8844 39.3863 14.6799C39.5852 14.9119 40.447 15.5085 41.2094 16.072C43.2645 17.431 47.7724 22.3367 50.0927 25.6514C51.1534 27.2093 52.2804 28.502 52.5455 28.502C52.8107 28.4688 54.3023 26.7452 55.8602 24.657C61.4288 17.0664 67.5609 12.4591 74.4223 10.7354C77.4718 9.97305 81.3499 10.2051 83.8691 11.2326C91.8574 14.5473 94.6417 18.8563 94.6417 27.8722C94.6417 32.0155 94.1445 34.2364 92.3214 37.9488C89.2719 44.2798 83.6702 51.108 73.3616 61.1514C67.0637 67.2835 63.8154 70.3661 59.7052 74.0786C58.081 75.537 56.5894 76.8629 56.3905 77.0618C52.3798 80.7079 52.6781 80.6416 50.0595 78.255C49.1314 77.4264 46.9106 75.3713 45.0875 73.7471C39.1212 68.3442 36.5357 65.8582 30.4699 59.8255C22.581 51.9698 18.3051 47.0309 15.0236 41.9264C11.3775 36.2915 10.6482 33.938 10.6482 27.6733C10.6482 22.6682 11.1123 20.4805 12.9354 17.3647C13.996 15.5417 17.0124 12.8568 18.6366 12.2933C19.3326 12.0613 20.3602 11.6635 20.8905 11.3984C23.94 10.0062 29.0446 10.0062 32.9227 11.3652Z" fill="#FFD700"/>
</svg>
