<svg width="108" height="108" viewBox="0 0 108 108" fill="none" xmlns="http://www.w3.org/2000/svg">
<path fill-rule="evenodd" clip-rule="evenodd" d="M8.1 108C5.94 108 4.05 107.19 2.43 105.57C0.81 103.95 0 102.06 0 99.9V35.1C0 32.94 0.81 31.05 2.43 29.43C4.05 27.81 5.94 27 8.1 27H40.095V8.1C40.095 5.94 40.905 4.05 42.525 2.43C44.145 0.81 46.035 0 48.195 0H59.94C62.1 0 63.99 0.81 65.61 2.43C67.23 4.05 68.04 5.94 68.04 8.1V27H99.9C102.06 27 103.95 27.81 105.57 29.43C107.19 31.05 108 32.94 108 35.1V99.9C108 102.06 107.19 103.95 105.57 105.57C103.95 107.19 102.06 108 99.9 108H8.1ZM8.1 99.9H99.9V35.1H68.04C68.04 37.62 67.2075 39.6 65.5425 41.04C63.8775 42.48 61.785 43.2 59.265 43.2H48.735C46.305 43.2 44.2575 42.48 42.5925 41.04C40.9275 39.6 40.095 37.62 40.095 35.1H8.1V99.9ZM20.52 85.455H52.785V83.565C52.785 81.945 52.38 80.505 51.57 79.245C50.76 77.985 49.725 77.13 48.465 76.68C48.1854 76.5839 47.9117 76.491 47.644 76.4012C47.9824 75.9445 48.5406 75.393 49.4775 74.7531C50.5751 74.2615 51.519 73.9182 52.3974 73.5988L52.3975 73.5988L52.7015 73.4881C53.6624 73.1373 54.6757 72.7588 55.5738 72.1873C57.6085 70.8925 58.6551 68.8889 59.4488 65.4497C59.6972 64.3734 59.026 63.2996 57.9497 63.0512C56.8734 62.8028 55.7996 63.474 55.5512 64.5503C54.8449 67.6111 54.1415 68.3575 53.4263 68.8127C52.9493 69.1162 52.3376 69.3627 51.3298 69.7307C51.2322 69.7663 51.1319 69.8027 51.0289 69.8401C50.1133 70.1728 48.9836 70.5833 47.6724 71.1793L47.5252 71.2462L47.3906 71.3359C45.4908 72.6025 44.3465 73.8818 43.7151 75.1954C42.9663 74.9938 42.2996 74.8362 41.715 74.7225C40.095 74.4075 38.52 74.25 36.99 74.25C35.28 74.25 33.4575 74.4525 31.5225 74.8575C29.5875 75.2625 27.405 75.87 24.975 76.68C23.625 77.13 22.545 77.985 21.735 79.245C20.925 80.505 20.52 81.945 20.52 83.565V85.455ZM65.88 76.41H88.83V69.66H65.88V76.41ZM36.99 69.66C39.015 69.66 40.7363 68.9513 42.1538 67.5338C43.5713 66.1162 44.28 64.395 44.28 62.37C44.28 60.766 43.8353 59.3525 42.9459 58.1296L43.596 52.4994L39.5394 55.5106C38.7511 55.2235 37.9013 55.08 36.99 55.08C36.1342 55.08 35.3326 55.2066 34.5853 55.4598L30.5981 52.5L31.2199 57.8851C30.2066 59.163 29.7 60.6579 29.7 62.37C29.7 64.395 30.4088 66.1162 31.8263 67.5338C33.2438 68.9513 34.965 69.66 36.99 69.66ZM65.88 61.155H88.83V54.405H65.88V61.155ZM48.195 35.1H59.94V8.1H48.195V35.1Z" fill="black"/>
</svg>
