<svg width="27" height="44" viewBox="0 0 27 44" fill="none" xmlns="http://www.w3.org/2000/svg">
<path fill-rule="evenodd" clip-rule="evenodd" d="M9.41138e-05 23.0159C0.0037281 23.7397 0.267811 24.4645 0.798244 25.0376C0.912979 25.1616 1.03575 25.2737 1.165 25.3739L22.0474 43.2775C23.3053 44.3559 25.1992 44.2105 26.2776 42.9526C27.356 41.6948 27.2106 39.8009 25.9527 38.7225L7.5119 22.9121L25.7963 5.99115C27.0124 4.86579 27.0859 2.96772 25.9605 1.75168C24.8352 0.535649 22.9371 0.462138 21.7211 1.58749L1.07452 20.6944C0.949808 20.799 0.831974 20.9152 0.722539 21.0429C0.232395 21.6146 -0.00493157 22.3177 9.41138e-05 23.0159Z" fill="#CF0A0A"/>
</svg>
