<svg width="104" height="103" viewBox="0 0 104 103" fill="none" xmlns="http://www.w3.org/2000/svg">
<path fill-rule="evenodd" clip-rule="evenodd" d="M34.7141 18.2754L14.8253 0L20.9734 27.5515C12.9604 35.5206 8 46.556 8 58.75C8 83.0505 27.6995 102.75 52 102.75C76.3005 102.75 96 83.0505 96 58.75C96 46.4114 90.9213 35.259 82.7402 27.2692L88.8253 0L69.0469 18.174C63.8041 15.9688 58.0444 14.75 52 14.75C45.8636 14.75 40.0206 16.0062 34.7141 18.2754ZM52 100.75C75.196 100.75 94 81.946 94 58.75C94 35.554 75.196 16.75 52 16.75C28.804 16.75 10 35.554 10 58.75C10 81.946 28.804 100.75 52 100.75Z" fill="black"/>
<path fill-rule="evenodd" clip-rule="evenodd" d="M25.4955 66.6824C25.4582 66.4088 25.2061 66.2173 24.9325 66.2546C24.6589 66.2919 24.4673 66.5439 24.5046 66.8176C25.2755 72.4701 29.3718 78.5038 34.734 80.8942C37.4331 82.0974 40.4615 82.3794 43.5298 81.2094C46.4358 80.1012 49.328 77.7098 52.0002 73.6723C54.6766 77.7118 57.6004 80.1029 60.5509 81.2103C63.6645 82.3789 66.7528 82.0971 69.5121 80.8959C74.996 78.5089 79.2236 72.4781 79.9955 66.8176C80.0328 66.5439 79.8412 66.2919 79.5676 66.2546C79.294 66.2173 79.042 66.4088 79.0046 66.6824C78.2765 72.0219 74.2542 77.7411 69.113 79.979C66.5598 81.0904 63.7418 81.3398 60.9023 80.2741C58.0581 79.2065 55.1373 76.7985 52.4289 72.4927C52.408 72.4578 52.3827 72.4252 52.3531 72.3958C52.3107 72.3535 52.2618 72.3199 52.2089 72.2957C52.0735 72.2332 51.9207 72.2362 51.7912 72.2957C51.7384 72.3199 51.6894 72.3535 51.647 72.3958C51.6175 72.4252 51.5921 72.4578 51.5712 72.4927C48.8615 76.8006 45.9709 79.2083 43.1735 80.275C40.3824 81.3393 37.6295 81.0901 35.1411 79.9808C30.1284 77.7462 26.2247 72.0299 25.4955 66.6824Z" fill="black"/>
<path d="M40 87.75L40.866 81H39.134L40 87.75Z" fill="black"/>
<path d="M65 87.75L65.866 81H64.134L65 87.75Z" fill="black"/>
<path fill-rule="evenodd" clip-rule="evenodd" d="M42.1492 62.7728C41.3623 62.5269 40.8902 62.3044 40.6429 62.122C40.571 62.069 40.5303 62.0281 40.5082 62.0016C40.524 61.9834 40.5493 61.9578 40.589 61.9258C40.676 61.8555 40.8062 61.7749 40.987 61.6875C41.3488 61.5128 41.8554 61.3387 42.4802 61.1703C44.9721 60.4984 49.0077 60.0026 51.9999 59.7517C54.9779 60.0027 59.0056 60.6217 61.4897 61.4139C62.1123 61.6124 62.6171 61.8154 62.9776 62.016C63.3591 62.2282 63.4765 62.3822 63.4983 62.437C63.4891 62.4573 63.4528 62.5176 63.3359 62.609C63.0924 62.7992 62.6256 63.0277 61.842 63.2728C58.5981 64.2874 56.216 65.5609 54.5514 66.7846C53.3641 67.6575 52.5275 68.5159 52.0088 69.2488C50.796 67.4169 47.745 64.5215 42.1492 62.7728ZM52.4288 70.5073C52.4399 70.4888 52.4497 70.4696 52.4583 70.4499C52.7441 69.8089 53.5689 68.7481 55.1437 67.5903C56.7096 66.4391 58.99 65.2126 62.1406 64.2272C62.9556 63.9723 63.5628 63.7008 63.9517 63.3969C64.1487 63.2429 64.3189 63.0582 64.4162 62.8338C64.5196 62.5954 64.5262 62.3441 64.4422 62.1067C64.2919 61.682 63.8787 61.373 63.4638 61.1422C63.0204 60.8955 62.4448 60.6688 61.7935 60.4611C59.1936 59.632 55.0544 59.003 52.0416 58.7517L52 59.2499L51.9585 58.7517C48.9548 59.002 44.8164 59.5047 42.2199 60.2047C41.5696 60.38 40.995 60.5732 40.5521 60.7871C40.3306 60.8941 40.1276 61.0131 39.9608 61.1477C39.7975 61.2796 39.6392 61.4503 39.5534 61.6688C39.4599 61.9068 39.4695 62.1598 39.5798 62.3941C39.6814 62.6097 39.8553 62.7837 40.0493 62.9268C40.4348 63.2112 41.0377 63.4731 41.8509 63.7272C48.1423 65.6933 50.9434 69.1082 51.5417 70.4499C51.5507 70.4706 51.5611 70.4907 51.5729 70.51C51.5901 70.5384 51.6098 70.5645 51.6316 70.5883C51.6744 70.6348 51.7252 70.6723 51.7808 70.6994C51.7855 70.7017 51.7902 70.7039 51.795 70.706C51.7957 70.7063 51.7964 70.7067 51.7971 70.707C51.8632 70.7363 51.9322 70.7502 52.0001 70.7501C52.068 70.7501 52.137 70.7363 52.2031 70.7069C52.2669 70.6786 52.3218 70.6385 52.3664 70.5904C52.3897 70.5653 52.4107 70.5375 52.4288 70.5073Z" fill="black"/>
<path fill-rule="evenodd" clip-rule="evenodd" d="M23.4358 42.75C22.5296 44.0827 22 45.6921 22 47.4252C22 52.0229 25.7271 55.75 30.3248 55.75C34.5781 55.75 38.0865 52.5602 38.5881 48.4423L23.4358 42.75Z" fill="#FFC717"/>
<path d="M30.5 53.75L31.5 45.75L29 44.75L30.5 53.75Z" fill="#CF0A0A"/>
<path d="M19 40.75L43 49.75" stroke="black" stroke-width="2" stroke-linecap="round"/>
<path fill-rule="evenodd" clip-rule="evenodd" d="M79.5642 42.75C80.4704 44.0827 81 45.6921 81 47.4252C81 52.0229 77.2729 55.75 72.6752 55.75C68.4219 55.75 64.9135 52.5602 64.4119 48.4423L79.5642 42.75Z" fill="#FFC717"/>
<path d="M72.5 53.75L71.5 45.75L74 44.75L72.5 53.75Z" fill="#CF0A0A"/>
<path d="M84 40.75L60 49.75" stroke="black" stroke-width="2" stroke-linecap="round"/>
<path d="M39 65.5238C33.5714 63.8572 18.9143 60.8238 3.71429 62.0238" stroke="black" stroke-linecap="round"/>
<path d="M34.4762 68.0238C21.8095 66.0238 7.33334 65.5238 1.00001 67.5238" stroke="black" stroke-linecap="round"/>
<path d="M37.1904 71.2971C24.5238 69.2971 13.6666 71.0239 7.33329 73.0238" stroke="black" stroke-linecap="round"/>
<path d="M65 65.5238C70.4286 63.8572 85.0857 60.8238 100.286 62.0238" stroke="black" stroke-linecap="round"/>
<path d="M69.5238 68.0238C82.1905 66.0238 96.6667 65.5238 103 67.5238" stroke="black" stroke-linecap="round"/>
<path d="M66.8096 71.2971C79.4762 69.2971 90.3334 71.0239 96.6667 73.0238" stroke="black" stroke-linecap="round"/>
</svg>
