<svg width="69" height="69" viewBox="0 0 69 69" fill="none" xmlns="http://www.w3.org/2000/svg">
<circle cx="34.5" cy="34.5" r="32.5" fill="#CF0A0A" stroke="black" stroke-width="4"/>
<path fill-rule="evenodd" clip-rule="evenodd" d="M33.4452 36.0585C33.4452 33.6578 32.2407 31.2408 30.0272 31.0129C27.8136 30.785 24.5339 33.6171 24.8594 36.0585C24.9137 39.1646 26.3813 45.5557 30.0272 43.8305C33.4846 42.1944 33.4584 38.1724 33.4464 36.3382C33.4458 36.2383 33.4452 36.1448 33.4452 36.0585ZM22.9941 53.9673C18.7622 53.9022 18.7215 50.2237 19.2098 46.8464C19.8488 42.4267 22.1121 42.4718 23.047 42.4904L23.0472 42.4904C23.1021 42.4915 23.1524 42.4925 23.1975 42.4925C26.4934 42.8181 27.6328 45.8698 27.6328 48.6775C27.5139 50.7934 27.2259 54.0324 22.9941 53.9673ZM45.2861 53.9673C49.518 53.9022 49.5587 50.2237 49.0704 46.8464C48.4314 42.4267 46.1681 42.4718 45.2332 42.4904L45.233 42.4904C45.1781 42.4915 45.1278 42.4925 45.0827 42.4925C41.7867 42.8181 40.6474 45.8698 40.6474 48.6775C40.7663 50.7934 41.0543 54.0324 45.2861 53.9673ZM38.2088 31.27C35.9952 31.4978 34.7908 33.9149 34.7908 36.3156C34.7908 36.4018 34.7902 36.4953 34.7895 36.5953C34.7776 38.4295 34.7514 42.4514 38.2088 44.0875C41.8547 45.8128 43.3222 39.4217 43.3765 36.3156C43.702 33.8742 40.4224 31.0421 38.2088 31.27ZM30.6069 50.7815C30.9528 49.3632 31.2336 48.2121 34.138 48.2121C37.0148 48.2121 37.4275 49.4155 37.9242 50.8641C38.2142 51.7098 38.5328 52.639 39.3871 53.4612C40.0618 54.1106 40.8229 54.4183 41.5482 54.7115C42.722 55.186 43.802 55.6226 44.2699 57.4082C44.2699 61.6934 40.5065 61.2063 36.8895 60.7382C35.9385 60.6151 34.9977 60.4934 34.138 60.46C33.258 60.4259 32.2884 60.521 31.3232 60.6157C28.2735 60.915 25.2674 61.21 25.2674 57.4082C25.3081 55.9057 26.3328 55.3422 27.4698 54.7169C28.1556 54.3398 28.8823 53.9402 29.4586 53.2985C30.1922 52.4814 30.4101 51.5882 30.6069 50.7815Z" fill="#FFD700"/>
<path d="M21.5588 35C21.5588 38.0782 22.2279 39.5473 22.8969 40.2469C23.566 40.9465 20.7859 41.4091 20.0707 40.4763C19.6092 39.8745 21.5588 35 21.5588 35Z" fill="#FFD700"/>
<path d="M28.4777 24C28.9909 26.9198 30.3381 28.4158 29.9211 29.2269C29.5041 30.0379 28.177 30.3927 27.137 29.3783C26.466 28.7239 28.4777 24 28.4777 24Z" fill="#FFD700"/>
<path d="M39.5223 24C39.0091 26.9198 37.6619 28.4158 38.0789 29.2269C38.4959 30.0379 39.823 30.3927 40.863 29.3783C41.534 28.7239 39.5223 24 39.5223 24Z" fill="#FFD700"/>
<path d="M46.4412 35C46.4412 38.0782 45.7721 39.5473 45.1031 40.2469C44.434 40.9465 47.2141 41.4091 47.9293 40.4763C48.3908 39.8745 46.4412 35 46.4412 35Z" fill="#FFD700"/>
<path fill-rule="evenodd" clip-rule="evenodd" d="M39.2014 18.7734L34.3185 10.0126L29.8316 18.644C29.7838 18.6475 29.7361 18.6511 29.6886 18.6547L22.4593 11.2941L20.5477 20.6312C20.4814 20.6588 20.4161 20.6865 20.3518 20.7141L11.7539 15.4441L16.5496 23.1552L16.6226 23.1161C16.6057 23.1358 16.5976 23.1461 16.5976 23.1461L17.9404 25.1495C17.9404 25.1495 24.2707 22.2112 34.3416 22.3002C44.4126 22.3893 51.2705 25.1495 51.2705 25.1495L52.4214 23.1461C52.4214 23.1461 52.4173 23.1417 52.4089 23.133L52.4503 23.1552L57.246 15.4441L48.4543 20.8329C48.4147 20.8171 48.3748 20.8013 48.3346 20.7855L46.1387 11.4809L39.3533 18.7885C39.3029 18.7834 39.2522 18.7784 39.2014 18.7734Z" fill="#FFD700"/>
</svg>
