<svg width="107" height="86" viewBox="0 0 107 86" fill="none" xmlns="http://www.w3.org/2000/svg">
<path d="M8.025 86C5.885 86 4.0125 85.1938 2.4075 83.5813C0.8025 81.9688 0 80.0875 0 77.9375V8.0625C0 5.9125 0.8025 4.03125 2.4075 2.41875C4.0125 0.80625 5.885 0 8.025 0H98.975C101.115 0 102.988 0.80625 104.593 2.41875C106.198 4.03125 107 5.9125 107 8.0625V77.9375C107 80.0875 106.198 81.9688 104.593 83.5813C102.988 85.1938 101.115 86 98.975 86H8.025ZM53.5 45.4188L8.025 15.4531V77.9375H98.975V15.4531L53.5 45.4188ZM53.5 37.3563L98.44 8.0625H8.69375L53.5 37.3563ZM8.025 15.4531V8.0625V77.9375V15.4531Z" fill="black"/>
</svg>
