<svg width="86" height="89" viewBox="0 0 86 89" fill="none" xmlns="http://www.w3.org/2000/svg">
<path d="M80.625 89C70.9102 89 61.2551 86.5278 51.6597 81.5833C42.0644 76.6389 33.4444 70.2111 25.8 62.3C18.1556 54.3889 11.9444 45.4683 7.16667 35.5382C2.38889 25.6081 0 15.6162 0 5.5625C0 3.97319 0.511898 2.64878 1.5357 1.58927C2.55949 0.529755 3.83926 0 5.375 0H22.0972C23.1811 0 24.1488 0.391435 25.0004 1.17431C25.852 1.95718 26.3972 3.00787 26.6361 4.32639L29.8611 19.9014C30.0204 21.0551 30.0005 22.1058 29.8014 23.0535C29.6023 24.0012 29.1843 24.8046 28.5472 25.4639L16.6028 37.9486C21.062 45.6125 26.0588 52.2875 31.5931 57.9736C37.1273 63.6597 43.3981 68.4806 50.4056 72.4361L61.7528 60.3222C62.5491 59.4157 63.4648 58.7771 64.5 58.4062C65.5352 58.0354 66.5704 57.9736 67.6056 58.2208L81.8194 61.4347C83.0387 61.7128 84.0403 62.3386 84.8242 63.3121C85.6081 64.2855 86 65.4315 86 66.75V83.4375C86 85.0268 85.4881 86.3512 84.4643 87.4107C83.4405 88.4702 82.1607 89 80.625 89ZM13.0194 31.15L22.6944 21.0139L19.9472 7.41667H7.16667C7.16667 10.6306 7.64444 14.1535 8.6 17.9854C9.55556 21.8174 11.0287 26.2056 13.0194 31.15ZM57.0944 76.0208C60.3593 77.5866 63.9028 78.8639 67.725 79.8528C71.5472 80.8417 75.25 81.4185 78.8333 81.5833V68.3569L66.5306 65.7611L57.0944 76.0208Z" fill="black"/>
</svg>
