<svg width="98" height="97" viewBox="0 0 98 97" fill="none" xmlns="http://www.w3.org/2000/svg">
<path fill-rule="evenodd" clip-rule="evenodd" d="M46.7509 16.3361C46.7509 8.58313 42.8528 0.77757 35.6887 0.0416936C28.5246 -0.694183 17.9102 8.45173 18.9637 16.3361C19.1393 26.3668 23.889 47.0064 35.6887 41.4348C46.8784 36.1512 46.7936 23.1627 46.755 17.2394L46.755 17.2376C46.7529 16.9154 46.7509 16.6141 46.7509 16.3361ZM12.9265 74.1707C-0.769536 73.9605 -0.901233 62.0813 0.679089 51.1746C2.74716 36.9016 10.072 37.0471 13.098 37.1073H13.0982H13.0984H13.0986C13.2762 37.1108 13.4389 37.1141 13.585 37.1141C24.2521 38.1653 27.9395 48.0208 27.9395 57.0879C27.5548 63.921 26.6225 74.381 12.9265 74.1707ZM85.0735 74.1707C98.7695 73.9605 98.9012 62.0813 97.3209 51.1746C95.2528 36.9016 87.928 37.0471 84.902 37.1073H84.9018C84.7241 37.1108 84.5611 37.1141 84.415 37.1141C73.7479 38.1653 70.0605 48.0208 70.0605 57.0879C70.4452 63.921 71.3774 74.381 85.0735 74.1707ZM62.1681 0.871844C55.004 1.60772 51.1059 9.41329 51.1059 17.1663C51.1059 17.4442 51.1039 17.7455 51.1018 18.0677L51.1018 18.0695C51.0631 23.9928 50.9783 36.9813 62.1681 42.2649C73.9677 47.8366 78.7174 27.197 78.893 17.1663C79.9466 9.28188 69.3321 0.135967 62.1681 0.871844ZM37.5649 63.8827C38.6846 59.3022 39.5933 55.585 48.9932 55.585C58.304 55.585 59.6394 59.4711 61.2471 64.1493C62.1856 66.8803 63.2169 69.8812 65.9816 72.5364C68.1652 74.6336 70.6285 75.6272 72.9759 76.574C76.7749 78.1064 80.2702 79.5163 81.7845 85.2829C81.7845 99.1214 69.6043 97.5485 57.8984 96.0368C54.8205 95.6394 51.7754 95.2461 48.9932 95.1384C46.145 95.0281 43.0071 95.3354 39.8834 95.6412C30.0131 96.6077 20.2842 97.5603 20.2842 85.2829C20.4156 80.4305 23.732 78.6108 27.4119 76.5917C29.6316 75.3738 31.9836 74.0833 33.8486 72.0108C36.223 69.3723 36.9281 66.4878 37.5649 63.8827Z" fill="#525252"/>
<path fill-rule="evenodd" clip-rule="evenodd" d="M48.5466 55.5879C39.564 55.7047 38.6666 59.3758 37.5649 63.8827C36.9281 66.4878 36.223 69.3723 33.8486 72.0108C31.9836 74.0833 29.6316 75.3738 27.4119 76.5917C23.732 78.6108 20.4156 80.4305 20.2842 85.2829C20.2842 97.5603 30.0131 96.6077 39.8834 95.6412C42.8447 95.3513 45.8187 95.06 48.5466 95.1245V55.5879ZM35.6887 0.0416936C42.8528 0.77757 46.7509 8.58313 46.7509 16.3361C46.7509 16.6141 46.7529 16.9154 46.755 17.2376L46.755 17.2394C46.7936 23.1627 46.8784 36.1512 35.6887 41.4348C23.889 47.0064 19.1393 26.3668 18.9637 16.3361C17.9102 8.45173 28.5246 -0.694183 35.6887 0.0416936ZM0.679089 51.1746C-0.901233 62.0813 -0.769536 73.9605 12.9265 74.1707C26.6225 74.381 27.5548 63.921 27.9395 57.0879C27.9395 48.0208 24.2521 38.1653 13.585 37.1141C13.439 37.1141 13.2763 37.1108 13.0987 37.1073H13.0986H13.0984H13.0982H13.098C10.072 37.0471 2.74716 36.9016 0.679089 51.1746Z" fill="#FFD700"/>
<path fill-rule="evenodd" clip-rule="evenodd" d="M46.7509 16.3361C46.7509 8.58313 42.8528 0.77757 35.6887 0.0416936C28.5246 -0.694183 17.9102 8.45173 18.9637 16.3361C19.1393 26.3668 23.889 47.0064 35.6887 41.4348C46.8784 36.1512 46.7936 23.1627 46.755 17.2394L46.755 17.2376C46.7529 16.9154 46.7509 16.6141 46.7509 16.3361ZM12.9265 74.1707C-0.769536 73.9605 -0.901233 62.0813 0.679089 51.1746C2.74716 36.9016 10.072 37.0471 13.098 37.1073H13.0982H13.0984H13.0986C13.2762 37.1108 13.4389 37.1141 13.585 37.1141C24.2521 38.1653 27.9395 48.0208 27.9395 57.0879C27.5548 63.921 26.6225 74.381 12.9265 74.1707ZM85.0735 74.1707C98.7695 73.9605 98.9012 62.0813 97.3209 51.1746C95.2528 36.9016 87.928 37.0471 84.902 37.1073H84.9018C84.7241 37.1108 84.5611 37.1141 84.415 37.1141C73.7479 38.1653 70.0605 48.0208 70.0605 57.0879C70.4452 63.921 71.3774 74.381 85.0735 74.1707ZM62.1681 0.871844C55.004 1.60772 51.1059 9.41329 51.1059 17.1663C51.1059 17.4442 51.1039 17.7455 51.1018 18.0677L51.1018 18.0695C51.0631 23.9928 50.9783 36.9813 62.1681 42.2649C73.9677 47.8366 78.7174 27.197 78.893 17.1663C79.9466 9.28188 69.3321 0.135967 62.1681 0.871844ZM37.5649 63.8827C38.6846 59.3022 39.5933 55.585 48.9932 55.585C58.304 55.585 59.6394 59.4711 61.2471 64.1493C62.1856 66.8803 63.2169 69.8812 65.9816 72.5364C68.1652 74.6336 70.6285 75.6272 72.9759 76.574C76.7749 78.1064 80.2702 79.5163 81.7845 85.2829C81.7845 99.1214 69.6043 97.5485 57.8984 96.0368C54.8205 95.6394 51.7754 95.2461 48.9932 95.1384C46.145 95.0281 43.0071 95.3354 39.8834 95.6412C30.0131 96.6077 20.2842 97.5603 20.2842 85.2829C20.4156 80.4305 23.732 78.6108 27.4119 76.5917C29.6316 75.3738 31.9836 74.0833 33.8486 72.0108C36.223 69.3723 36.9281 66.4878 37.5649 63.8827Z" fill="#FFD700"/>
</svg>
