<svg width="76" height="76" viewBox="0 0 76 76" fill="none" xmlns="http://www.w3.org/2000/svg">
<path fill-rule="evenodd" clip-rule="evenodd" d="M29.1285 50.7746C38.1477 57.7149 51.1339 57.0535 59.397 48.7904C68.3791 39.8083 68.3791 25.2455 59.397 16.2635C50.4149 7.2814 35.8521 7.2814 26.8701 16.2635C18.607 24.5266 17.9456 37.5128 24.8859 46.532L16.2635 55.1543C15.0919 56.3259 15.0919 58.2254 16.2635 59.397C17.4351 60.5685 19.3346 60.5685 20.5061 59.397L29.1285 50.7746ZM57.2757 46.6691C49.4652 54.4795 36.8019 54.4795 28.9914 46.6691C21.1809 38.8586 21.1809 26.1953 28.9914 18.3848C36.8019 10.5743 49.4652 10.5743 57.2757 18.3848C65.0862 26.1953 65.0862 38.8586 57.2757 46.6691Z" fill="#CF0F0F"/>
</svg>
