<svg width="27" height="44" viewBox="0 0 27 44" fill="none" xmlns="http://www.w3.org/2000/svg">
<path fill-rule="evenodd" clip-rule="evenodd" d="M27 22.2267C26.9964 22.9505 26.7323 23.6752 26.2019 24.2483C26.0871 24.3723 25.9644 24.4844 25.8351 24.5846L4.95271 42.4882C3.69486 43.5666 1.80094 43.4212 0.722523 42.1633C-0.355897 40.9055 -0.210444 39.0116 1.0474 37.9332L19.4882 22.1228L1.20378 5.20184C-0.0122595 4.07649 -0.08577 2.17841 1.03958 0.962378C2.16494 -0.253657 4.06301 -0.327168 5.27905 0.798187L25.9256 19.9051C26.0503 20.0097 26.1681 20.1259 26.2776 20.2536C26.7678 20.8253 27.0051 21.5285 27 22.2267Z" fill="#CF0A0A"/>
</svg>
