<svg width="54" height="50" viewBox="0 0 54 50" fill="none" xmlns="http://www.w3.org/2000/svg">
<path fill-rule="evenodd" clip-rule="evenodd" d="M45.584 3H52C53.1046 3 54 3.89543 54 5C54 6.10457 53.1046 7 52 7H45.584C44.8124 8.76591 43.0503 10 41 10C38.9497 10 37.1876 8.76591 36.416 7H2C0.895433 7 2.26498e-06 6.10457 2.26498e-06 5C2.26498e-06 3.89543 0.895433 3 2 3H36.416C37.1876 1.2341 38.9497 0 41 0C43.0503 0 44.8124 1.2341 45.584 3ZM2 23C0.895433 23 2.26498e-06 23.8954 2.26498e-06 25C2.26498e-06 26.1046 0.895433 27 2 27H7.41604C8.1876 28.7659 9.94968 30 12 30C14.0503 30 15.8124 28.7659 16.584 27H52C53.1046 27 54 26.1046 54 25C54 23.8954 53.1046 23 52 23H16.584C15.8124 21.2341 14.0503 20 12 20C9.94968 20 8.1876 21.2341 7.41604 23H2ZM0 45C0 43.8954 0.89543 43 2 43H23.416C24.1876 41.2341 25.9497 40 28 40C30.0503 40 31.8124 41.2341 32.584 43H52C53.1046 43 54 43.8954 54 45C54 46.1046 53.1046 47 52 47H32.584C31.8124 48.7659 30.0503 50 28 50C25.9497 50 24.1876 48.7659 23.416 47H2C0.89543 47 0 46.1046 0 45Z" fill="#CF0A0A"/>
</svg>
