<svg width="130" height="114" viewBox="0 0 130 114" fill="none" xmlns="http://www.w3.org/2000/svg">
<path d="M122.261 1.09631C117.73 3.21265 114.361 4.57738 110.579 5.82344C106.639 7.14862 105.674 7.60353 103.842 9.00783C102.758 9.83854 100.631 11.9746 99.2715 13.5965C98.6412 14.3481 98.2472 14.5854 96.0803 15.4162C92.7708 16.682 91.3327 17.572 88.496 20.1433C86.3882 22.042 85.7578 22.4772 83.3939 23.7035C76.3416 27.3428 71.338 31.6743 67.4178 37.5091L66.5904 38.7551H51.6387H36.6869L36.4899 38.0035C36.3717 37.608 35.8989 35.729 35.4064 33.8302C34.914 31.9512 34.4806 30.3689 34.4609 30.3294C34.323 30.2107 25.8523 27.3428 14.013 23.4463C6.35 20.9147 1.99645 19.5697 1.46457 19.5697C0.834195 19.5697 0.558405 19.6686 0.341712 20.0048C-0.288665 20.8949 -0.0325741 21.8047 0.991789 22.3189C1.38577 22.5167 8.39872 24.8902 16.5739 27.5603C24.7491 30.2502 31.5454 32.5446 31.6833 32.683C31.9197 32.9204 35.7807 47.5765 41.592 70.2034C43.4438 77.4424 45 83.5145 45.0591 83.6925C45.1379 83.9496 44.9606 84.0881 44.3302 84.2463C41.8678 84.9188 40.154 86.1649 39.4054 87.8658C38.7553 89.3295 38.7553 92.0194 39.3857 93.4435C39.9373 94.6302 40.6859 95.4807 41.5329 95.8367C42.0648 96.074 47.4033 96.1136 73.8989 96.1136C95.903 96.1136 105.753 96.0543 106.028 95.896C106.875 95.4411 106.954 93.661 106.127 93.3446C105.891 93.2655 91.6085 93.1468 74.3913 93.0874C57.1545 93.0281 42.9119 92.9292 42.7346 92.8501C42.2224 92.6523 41.9269 91.4656 42.0648 90.1997C42.1633 89.3295 42.3209 88.9537 42.8331 88.4394C44.1923 87.0351 42.0254 87.134 75.7112 87.0154C109.082 86.8967 106.442 87.0154 106.718 85.6902C106.816 85.1562 106.738 84.9584 106.245 84.4441C105.654 83.8508 105.634 83.8508 103.467 83.8508C102.266 83.8508 101.281 83.8112 101.281 83.7519C101.281 83.7123 101.458 83.1981 101.695 82.6245C103.29 78.5896 117.257 41.623 117.434 40.9703C117.789 39.5858 117.572 39.1903 116.193 38.8145L115.011 38.4782L115.129 36.1839C115.228 33.8895 115.74 30.9029 116.075 30.5469C116.193 30.4283 117.099 30.4876 118.577 30.7052C122.97 31.3579 123.403 31.259 126.791 28.9251C129.924 26.7692 130.456 25.5033 129.687 22.1014C129.451 21.0927 129.136 19.2532 128.958 18.0072C128.505 14.6646 128.052 13.5372 125.511 9.38362C125.255 8.96827 125.294 8.65181 125.885 6.08057C126.713 2.52039 126.87 0.799629 126.397 0.324944C125.826 -0.268425 124.782 -0.0706329 122.261 1.09631ZM52.1114 44.8272C52.2887 49.1785 52.2099 56.0022 51.9736 56.2989C51.7569 56.5758 46.3593 56.6549 42.9513 56.4374L41.0601 56.2989L40.7253 54.7957C40.5283 53.965 39.7206 50.7411 38.9129 47.6358C38.1053 44.5107 37.4552 41.8999 37.4552 41.8406C37.4552 41.7813 40.7253 41.7219 44.7242 41.7219H51.9736L52.1114 44.8272ZM71.2395 49.139V56.4571H63.2612H55.283L55.2239 49.0796L55.1845 41.7219L63.2021 41.7615L71.2395 41.8208V49.139ZM91.1357 49.139V56.4571H82.7635H74.3913L74.3322 49.0796L74.2928 41.7219L82.7044 41.7615L91.1357 41.8208V49.139ZM113.888 41.8011C113.888 41.8406 113.317 43.3438 112.647 45.1239C111.958 46.8842 110.737 50.0884 109.949 52.2047C109.161 54.321 108.412 56.1802 108.314 56.3187C108.156 56.4967 106.6 56.556 101.202 56.5165L94.2876 56.4571L94.2285 49.0796L94.1891 41.7219H104.039C109.456 41.7219 113.888 41.7615 113.888 41.8011ZM52.1114 59.6415C52.1705 59.8195 52.2296 62.7072 52.2296 66.0696V72.1813L51.7963 72.2802C51.5402 72.3395 49.9839 72.3593 48.3095 72.3395L45.2758 72.2802L43.6408 65.9114C42.7543 62.4105 42.0845 59.5031 42.1436 59.4437C42.2027 59.3844 44.4484 59.3251 47.1275 59.3251C51.3826 59.3251 52.013 59.3646 52.1114 59.6415ZM71.2395 65.8521V72.2802L63.2218 72.3395L55.1845 72.3791V65.9905C55.1845 62.4699 55.2436 59.5228 55.3224 59.4635C55.4012 59.3844 59.0062 59.3448 63.34 59.3646L71.2395 59.424V65.8521ZM91.1357 65.8521V72.2802L82.7241 72.3395L74.2928 72.3791V65.9905C74.2928 62.4699 74.3519 59.5228 74.4307 59.4635C74.4898 59.3844 78.2918 59.3448 82.8423 59.3646L91.1357 59.424V65.8521ZM107.132 59.6613C107.053 59.9975 103.467 69.432 102.68 71.3901L102.345 72.2802H98.3063H94.2876L94.1891 65.9905C94.13 62.1336 94.1694 59.6217 94.2876 59.5031C94.3861 59.4042 97.0849 59.3251 100.847 59.3251C106.836 59.3251 107.23 59.3448 107.132 59.6613ZM51.9736 75.6623C52.0326 75.8403 52.0917 77.7193 52.1114 79.8752L52.1311 83.7519L50.2203 83.8112C48.408 83.8705 48.3095 83.8508 48.1913 83.4354C47.6988 81.9124 46.1623 75.6228 46.2411 75.5041C46.3002 75.425 47.5806 75.3459 49.0975 75.3459C51.4417 75.3459 51.8751 75.3854 51.9736 75.6623ZM71.2986 79.6379L71.338 83.8508H63.2612H55.1845V79.5983V75.3459L63.2218 75.3854L71.2395 75.4448L71.2986 79.6379ZM91.1948 79.6379L91.2342 83.8508H82.7635H74.2928V79.7368C74.2928 77.4622 74.3519 75.5437 74.4307 75.4843C74.4898 75.4052 78.2918 75.3657 82.8423 75.3854L91.1357 75.4448L91.1948 79.6379ZM101.084 75.4843C101.084 75.5832 100.394 77.482 99.567 79.7368L98.0502 83.8508H96.1197H94.1891V79.5983V75.3459H97.6365C99.5276 75.3459 101.084 75.4052 101.084 75.4843Z" fill="#FFD700"/>
<path d="M53.3131 98.5662C51.1855 99.2387 49.4717 100.742 48.5458 102.739C48.0534 103.808 47.9943 104.144 47.9943 106.003C47.9943 107.961 48.0337 108.139 48.6443 109.326C49.452 110.908 50.5158 111.956 52.072 112.767C53.2343 113.361 53.4313 113.4 55.3815 113.42C57.3317 113.42 57.5287 113.38 58.7698 112.767C62.8672 110.75 64.2659 105.627 61.7838 101.751C60.9564 100.445 59.085 99.0013 57.6863 98.586C56.4847 98.2299 54.3965 98.2102 53.3131 98.5662Z" fill="#FFD700"/>
<path d="M87.3338 98.6651C80.9512 101.039 80.5178 109.998 86.664 112.886C87.649 113.361 88.0232 113.42 89.8553 113.42C91.707 113.42 92.0419 113.361 93.0269 112.866C96.1591 111.343 97.8729 108.1 97.3607 104.796C96.947 102.205 95.3908 100.129 93.0466 99.0211C91.3327 98.2102 88.9885 98.0519 87.3338 98.6651Z" fill="#FFD700"/>
</svg>
