<svg width="55" height="51" viewBox="0 0 55 51" fill="none" xmlns="http://www.w3.org/2000/svg">
<path d="M49.3375 2.59299C47.555 3.42402 46.2299 3.95992 44.7419 4.44921C43.192 4.96958 42.8123 5.14821 42.0916 5.69964C41.6654 6.02584 40.8284 6.86463 40.2937 7.5015C40.0457 7.79663 39.8907 7.88983 39.0382 8.21603C37.7363 8.71309 37.1706 9.06259 36.0546 10.0723C35.2254 10.8178 34.9774 10.9887 34.0475 11.4702C31.2731 12.8993 29.3047 14.6002 27.7626 16.8913L27.4371 17.3806H21.5551H15.6732L15.5957 17.0855C15.5492 16.9302 15.3632 16.1924 15.1694 15.4468C14.9757 14.7089 14.8052 14.0876 14.7975 14.0721C14.7432 14.0255 11.4109 12.8993 6.75338 11.3693C3.73878 10.3751 2.02612 9.84702 1.81688 9.84702C1.56889 9.84702 1.4604 9.88585 1.37515 10.0179C1.12716 10.3674 1.22791 10.7246 1.63089 10.9266C1.78588 11.0042 4.54474 11.9362 7.76083 12.9847C10.9769 14.041 13.6505 14.9419 13.7048 14.9963C13.7978 15.0895 15.3167 20.8446 17.6028 29.7296C18.3313 32.5722 18.9435 34.9565 18.9668 35.0264C18.9978 35.1274 18.928 35.1818 18.68 35.2439C17.7113 35.508 17.0371 35.9973 16.7426 36.6652C16.4869 37.2399 16.4869 38.2962 16.7349 38.8554C16.9519 39.3214 17.2463 39.6553 17.5796 39.7951C17.7888 39.8883 19.889 39.9039 30.3122 39.9039C38.9685 39.9039 42.8433 39.8806 42.9518 39.8184C43.285 39.6398 43.316 38.9408 42.9905 38.8165C42.8975 38.7855 37.2791 38.7389 30.5059 38.7156C23.725 38.6923 18.122 38.6534 18.0523 38.6224C17.8508 38.5447 17.7346 38.0787 17.7888 37.5816C17.8276 37.2399 17.8896 37.0924 18.0911 36.8904C18.6258 36.339 17.7733 36.3778 31.0251 36.3312C44.153 36.2846 43.1145 36.3312 43.223 35.8109C43.2618 35.6012 43.2308 35.5235 43.037 35.3216C42.8045 35.0886 42.7968 35.0886 41.9443 35.0886C41.4716 35.0886 41.0841 35.073 41.0841 35.0497C41.0841 35.0342 41.1539 34.8323 41.2469 34.607C41.8746 33.0226 47.3691 18.5068 47.4388 18.2505C47.5783 17.7068 47.4931 17.5515 46.9506 17.4039L46.4856 17.2719L46.5321 16.371C46.5709 15.4701 46.7723 14.2973 46.9041 14.1575C46.9506 14.1109 47.3071 14.1342 47.8883 14.2196C49.6164 14.4759 49.7869 14.4371 51.1199 13.5206C52.3521 12.6741 52.5613 12.177 52.2591 10.8411C52.1661 10.445 52.0421 9.72275 51.9723 9.23346C51.7941 7.92089 51.6158 7.4782 50.6161 5.84721C50.5154 5.6841 50.5309 5.55984 50.7634 4.55018C51.0889 3.15218 51.1509 2.47649 50.9649 2.29009C50.7401 2.05709 50.3294 2.13476 49.3375 2.59299ZM21.7411 19.765C21.8109 21.4737 21.7799 24.1531 21.6869 24.2696C21.6016 24.3784 19.4782 24.4094 18.1375 24.324L17.3936 24.2696L17.2618 23.6794C17.1843 23.3532 16.8666 22.0872 16.5489 20.8679C16.2311 19.6407 15.9754 18.6155 15.9754 18.5922C15.9754 18.5689 17.2618 18.5456 18.835 18.5456H21.6869L21.7411 19.765ZM29.266 21.4581V24.3318H26.1274H22.9888L22.9656 21.4348L22.9501 18.5456L26.1041 18.5612L29.266 18.5845V21.4581ZM37.0931 21.4581V24.3318H33.7995H30.5059L30.4827 21.4348L30.4672 18.5456L33.7763 18.5612L37.0931 18.5845V21.4581ZM46.0439 18.5767C46.0439 18.5922 45.8191 19.1825 45.5557 19.8815C45.2844 20.5727 44.8039 21.8309 44.494 22.662C44.184 23.493 43.8895 24.223 43.8507 24.2774C43.7887 24.3473 43.1765 24.3706 41.0531 24.3551L38.333 24.3318L38.3098 21.4348L38.2943 18.5456H42.1691C44.3002 18.5456 46.0439 18.5612 46.0439 18.5767ZM21.7411 25.5822C21.7644 25.6521 21.7876 26.786 21.7876 28.1064V30.5062L21.6171 30.5451C21.5164 30.5684 20.9042 30.5761 20.2454 30.5684L19.052 30.5451L18.4088 28.0442C18.0601 26.6695 17.7966 25.5278 17.8198 25.5045C17.8431 25.4812 18.7265 25.4579 19.7805 25.4579C21.4544 25.4579 21.7024 25.4735 21.7411 25.5822ZM29.266 28.0209V30.5451L26.1119 30.5684L22.9501 30.5839V28.0753C22.9501 26.6928 22.9733 25.5356 23.0043 25.5123C23.0353 25.4812 24.4535 25.4657 26.1584 25.4735L29.266 25.4968V28.0209ZM37.0931 28.0209V30.5451L33.784 30.5684L30.4672 30.5839V28.0753C30.4672 26.6928 30.4904 25.5356 30.5214 25.5123C30.5447 25.4812 32.0403 25.4657 33.8305 25.4735L37.0931 25.4968V28.0209ZM43.3858 25.59C43.3548 25.722 41.9443 29.4267 41.6343 30.1956L41.5026 30.5451H39.9139H38.333L38.2943 28.0753C38.271 26.5608 38.2865 25.5744 38.333 25.5278C38.3718 25.489 39.4335 25.4579 40.9136 25.4579C43.2695 25.4579 43.4245 25.4657 43.3858 25.59ZM21.6869 31.8732C21.7101 31.9431 21.7334 32.6809 21.7411 33.5275L21.7489 35.0497L20.9972 35.073C20.2842 35.0963 20.2454 35.0886 20.1989 34.9255C20.0052 34.3274 19.4007 31.8576 19.4317 31.811C19.455 31.78 19.9587 31.7489 20.5554 31.7489C21.4776 31.7489 21.6481 31.7644 21.6869 31.8732ZM29.2892 33.4343L29.3047 35.0886H26.1274H22.9501V33.4187V31.7489L26.1119 31.7644L29.266 31.7877L29.2892 33.4343ZM37.1163 33.4343L37.1318 35.0886H33.7995H30.4672V33.4731C30.4672 32.5799 30.4904 31.8266 30.5214 31.8033C30.5447 31.7722 32.0403 31.7567 33.8305 31.7644L37.0931 31.7877L37.1163 33.4343ZM41.0066 31.8033C41.0066 31.8421 40.7354 32.5877 40.4099 33.4731L39.8132 35.0886H39.0537H38.2943V33.4187V31.7489H39.6505C40.3944 31.7489 41.0066 31.7722 41.0066 31.8033Z" fill="#FFD700"/>
<path d="M22.214 40.8669C21.377 41.131 20.7028 41.7212 20.3386 42.5057C20.1448 42.9251 20.1216 43.0571 20.1216 43.7872C20.1216 44.5561 20.1371 44.626 20.3773 45.092C20.6951 45.7133 21.1135 46.1249 21.7258 46.4433C22.183 46.6763 22.2605 46.6919 23.0277 46.6996C23.7949 46.6996 23.8724 46.6841 24.3606 46.4433C25.9725 45.6512 26.5228 43.6396 25.5463 42.1173C25.2208 41.6047 24.4846 41.0378 23.9344 40.8747C23.4617 40.7349 22.6402 40.7271 22.214 40.8669Z" fill="#FFD700"/>
<path d="M35.5974 40.9057C33.0865 41.8377 32.916 45.356 35.3339 46.4899C35.7214 46.6763 35.8686 46.6996 36.5893 46.6996C37.3178 46.6996 37.4495 46.6763 37.837 46.4822C39.0692 45.8841 39.7434 44.6104 39.5419 43.3134C39.3792 42.296 38.767 41.4805 37.8448 41.0455C37.1705 40.7271 36.2483 40.665 35.5974 40.9057Z" fill="#FFD700"/>
</svg>
