<svg width="55" height="55" viewBox="0 0 55 55" fill="none" xmlns="http://www.w3.org/2000/svg">
<path d="M16.8933 3.64964C16.4718 3.76099 16.0875 3.8971 16.0379 3.94659C15.9884 3.99609 15.8644 4.0332 15.7652 4.0332C15.4182 4.0332 13.9306 4.82509 13.0505 5.46849C11.0176 6.97802 9.86481 9.09383 9.45574 12.1253C9.07147 15.0082 9.79043 18.3242 11.2779 20.539C11.4887 20.836 11.6498 21.1205 11.6498 21.1577C11.6498 21.2319 11.8977 21.5783 13.2861 23.4467L13.6951 23.9911L13.7571 29.3858C13.8191 34.533 13.8315 34.7929 14.067 35.1146C14.6248 35.8817 15.9264 35.8693 16.447 35.1022C16.7197 34.6939 16.7321 34.6073 16.7321 31.4398C16.7321 27.468 16.7445 27.4309 17.7362 28.3712L18.4056 29.0022L18.4303 37.5026C18.4551 46.1391 18.4675 46.3494 18.9014 46.3494C19.3476 46.3494 19.36 46.1391 19.3476 38.4553C19.3476 34.298 19.3848 30.7964 19.422 30.6479C19.4964 30.3385 19.8931 30.3014 20.0046 30.586C20.0418 30.6974 20.079 33.3205 20.079 36.4138C20.079 40.3856 20.1162 42.192 20.2277 42.5385C20.5872 43.751 22.0251 43.85 22.5086 42.687C22.6449 42.3653 22.6821 41.363 22.6821 37.8862C22.6821 35.1146 22.7317 33.469 22.8061 33.4195C22.8681 33.3823 23.0044 33.3947 23.1036 33.4442C23.2399 33.5184 24.7274 34.8547 25.9051 35.956C27.0455 37.0201 28.5082 38.3069 28.7933 38.4925L29.128 38.7028L29.7478 38.1336C30.0825 37.8243 30.4419 37.5645 30.5287 37.5645C30.6279 37.5645 30.7394 37.7377 30.789 37.948C30.8262 38.1584 30.8634 41.0784 30.8634 44.4316C30.8634 49.6036 30.8882 50.5439 31.0493 50.68C31.322 50.9027 31.6443 50.779 31.7435 50.3954C31.7931 50.1975 31.8427 46.9557 31.8427 43.1943C31.8427 36.1416 31.8675 35.7704 32.3261 35.857C32.512 35.8941 32.5368 36.3024 32.5988 40.3608C32.6484 43.8995 32.698 44.8646 32.8343 45.0255C33.0823 45.3224 33.9128 45.3101 34.0739 45.0007C34.1607 44.8523 34.2103 42.8354 34.2103 39.5442C34.2227 34.0876 34.2475 33.803 34.7681 33.5184C35.2515 33.2462 41.1272 27.5422 42.7014 25.81C46.0731 22.1104 47.8581 19.2274 48.4159 16.5425C48.6886 15.2557 48.6886 12.2119 48.4159 10.9374C48.0193 9.05671 47.0524 7.31209 45.7012 6.0624C44.9451 5.35713 43.5196 4.4044 43.2097 4.4044C43.1353 4.4044 43.0113 4.35491 42.937 4.30542C42.7758 4.15694 41.8461 3.83524 40.9288 3.61252C39.8876 3.35268 37.4208 3.35268 36.392 3.60014C34.1235 4.18168 32.1526 5.20866 30.2436 6.82954C29.6486 7.33684 29.1032 7.74515 29.0164 7.74515C28.942 7.74515 28.3842 7.33684 27.7892 6.84191C26.7604 5.97579 25.6323 5.14679 25.4836 5.14679C25.4464 5.14679 25.1489 4.98594 24.8266 4.78797C24.0953 4.35491 22.7689 3.85998 21.6533 3.60014C20.5252 3.35268 17.9345 3.37743 16.8933 3.64964ZM21.6657 7.65854C22.5334 7.96787 23.7482 8.5989 24.0829 8.89586C24.1572 8.98247 24.4795 9.20518 24.7646 9.41553C25.5332 9.92283 27.219 11.7541 28.0867 12.9914C28.4834 13.5729 28.9049 14.0555 29.004 14.0555C29.1032 14.0431 29.661 13.3997 30.2436 12.6202C32.3261 9.78672 34.6193 8.06686 37.1853 7.42345C38.3257 7.13887 39.776 7.22548 40.7181 7.60905C43.7055 8.84636 44.7468 10.4549 44.7468 13.8204C44.7468 15.367 44.5608 16.196 43.8791 17.5818C42.7386 19.9451 40.6437 22.494 36.7886 26.243C34.4334 28.5321 33.2186 29.6828 31.6815 31.0686C31.0741 31.613 30.5163 32.1079 30.4419 32.1821C28.942 33.5432 29.0536 33.5184 28.0743 32.6276C27.7272 32.3183 26.8967 31.5511 26.215 30.9448C23.9837 28.928 23.0168 28 20.7484 25.7481C17.7982 22.8157 16.1991 20.9721 14.9719 19.0666C13.6084 16.9632 13.3356 16.0847 13.3356 13.7461C13.3356 11.8778 13.5092 11.0612 14.191 9.89808C14.5876 9.21756 15.7157 8.21533 16.3231 8.00499C16.5834 7.91838 16.9676 7.7699 17.166 7.67091C18.3064 7.15124 20.2154 7.15124 21.6657 7.65854Z" fill="#FFD700"/>
</svg>
