<svg width="55" height="55" viewBox="0 0 55 55" fill="none" xmlns="http://www.w3.org/2000/svg">
<path fill-rule="evenodd" clip-rule="evenodd" d="M15.8092 3.53753C15.8597 3.48739 16.2512 3.34949 16.6805 3.23666C17.7412 2.96085 20.3803 2.93578 21.5294 3.18651C21.6714 3.21942 21.8168 3.25605 21.964 3.29581C22.9941 3.57416 24.1101 4.00609 24.762 4.39002C24.7825 4.40256 24.8029 4.41495 24.8232 4.42716C25.1271 4.61034 25.3957 4.75358 25.4312 4.75358C25.5827 4.75358 26.7318 5.59353 27.7799 6.47109C27.8178 6.50243 27.8555 6.53343 27.893 6.564C28.4551 7.02265 28.9589 7.38626 29.03 7.38626C29.1184 7.38626 29.674 6.97255 30.2801 6.45855C32.1566 4.87371 34.092 3.84926 36.3018 3.25001C36.3819 3.22828 36.4624 3.20712 36.5432 3.18651C37.5913 2.93578 40.1041 2.93578 41.1648 3.19905C41.2816 3.22725 41.3986 3.25703 41.5142 3.28783C42.3237 3.50345 43.0668 3.76946 43.2104 3.90109C43.2199 3.90736 43.2301 3.91363 43.241 3.9198C43.3169 3.96299 43.4219 4.00139 43.4882 4.00139C43.8039 4.00139 45.256 4.9667 46.0263 5.68128C46.1983 5.83956 46.3643 6.00567 46.5237 6.1789C47.6398 7.39154 48.4381 8.95332 48.7917 10.6207C48.8264 10.7821 48.8568 10.9715 48.8828 11.182C49.0651 12.6551 49.0347 15.1589 48.7917 16.2997C48.7206 16.6398 48.6301 16.983 48.5193 17.3305C47.7436 19.7634 45.9758 22.4097 42.9705 25.6896C42.77 25.909 42.5011 26.1913 42.183 26.5178C39.9563 28.8036 35.3199 33.2586 34.889 33.4999C34.7564 33.572 34.6554 33.6441 34.5783 33.798C34.3468 34.2599 34.3303 35.4587 34.3208 39.6052C34.3208 39.8136 34.3206 40.017 34.3202 40.2152C34.3143 43.188 34.2648 44.9928 34.1819 45.1338C34.1614 45.173 34.1302 45.2075 34.0909 45.2372C33.8155 45.4455 33.1402 45.4222 32.9192 45.1589C32.9192 45.1589 32.9192 45.1589 32.9192 45.1589C32.7803 44.9959 32.7298 44.0181 32.6793 40.4326C32.6161 36.3206 32.5909 35.9069 32.4015 35.8693C32.1678 35.8254 32.0447 35.8975 31.98 36.8738C31.9153 37.8501 31.909 39.7306 31.909 43.3035C31.909 43.5417 31.9088 43.7778 31.9084 44.0113C31.9027 47.5131 31.8553 50.4117 31.808 50.5998C31.8017 50.624 31.7945 50.6473 31.7864 50.6695C31.6661 51.0027 31.3613 51.0996 31.1009 50.8881C31.1009 50.8881 31.1009 50.8881 31.1008 50.8881C30.9367 50.7502 30.9114 49.7974 30.9114 44.5571C30.9114 41.1597 30.8736 38.2011 30.8357 37.988C30.7852 37.7749 30.6715 37.5993 30.5705 37.5993C30.4821 37.5993 30.1159 37.8626 29.775 38.176L29.1436 38.7527L28.8027 38.5396C28.5123 38.3515 27.0222 37.0477 25.8605 35.9696C24.9608 35.1328 23.8836 34.162 23.3426 33.6972C23.1622 33.5422 23.0415 33.4435 23.0068 33.4247C22.9057 33.3745 22.7668 33.362 22.7037 33.3996C22.6848 33.4121 22.6674 33.5258 22.652 33.733C22.6058 34.3547 22.5774 35.8192 22.5774 37.9253C22.5774 38.1455 22.5773 38.3559 22.577 38.5569C22.5723 41.5723 22.5309 42.4839 22.4007 42.7895C21.9082 43.9679 20.4434 43.8676 20.0772 42.639C19.9636 42.288 19.9257 40.4577 19.9257 36.4334C19.9257 33.2995 19.8878 30.6419 19.85 30.5288C19.8499 30.5287 19.8499 30.5287 19.8499 30.5287C19.7363 30.2404 19.3322 30.278 19.2565 30.5914C19.247 30.629 19.2375 30.879 19.2286 31.2986C19.202 32.5573 19.1807 35.3428 19.1807 38.502C19.1811 38.7453 19.1815 38.9812 19.1818 39.2099C19.1921 46.3001 19.1665 46.5003 18.7262 46.5003C18.7261 46.5003 18.7261 46.5003 18.7261 46.5003C18.2842 46.5003 18.2715 46.2872 18.2463 37.5367L18.221 28.9241L17.5392 28.2847C16.529 27.3319 16.5163 27.3695 16.5163 31.3938C16.5163 31.5943 16.5163 31.7827 16.5161 31.9598C16.5137 34.6154 16.4864 34.7167 16.2259 35.1046C16.1596 35.2017 16.0809 35.2869 15.9928 35.3602C15.3759 35.8726 14.2987 35.7972 13.8015 35.1171C13.5616 34.7912 13.5489 34.5279 13.4858 29.3127L13.4227 23.8468L13.006 23.2951C11.9453 21.8754 11.538 21.323 11.4007 21.1038C11.3549 21.0307 11.3392 20.9947 11.3392 20.9759C11.3392 20.9383 11.175 20.6499 10.9603 20.3491C9.9301 18.8233 9.26177 16.7818 9.0625 14.7131C8.96868 13.7392 8.97884 12.7592 9.10414 11.8242C9.13018 11.6322 9.15918 11.4439 9.19118 11.2591C9.39749 10.0676 9.72825 9.02351 10.1926 8.10642C10.8084 6.89005 11.6591 5.89704 12.766 5.07953C13.6626 4.42763 15.1779 3.62529 15.5314 3.62529C15.6324 3.62529 15.7587 3.58768 15.8092 3.53753Z" fill="#FFD700"/>
</svg>
